<svg width="140" height="40" viewBox="0 0 140 40" fill="none" xmlns="http://www.w3.org/2000/svg">
<rect width="140" height="40" rx="4" fill="#70C05B"/>
<path fill-rule="evenodd" clip-rule="evenodd" d="M10.5 20C10.5 19.7239 10.7239 19.5 11 19.5H29C29.2761 19.5 29.5 19.7239 29.5 20C29.5 20.2761 29.2761 20.5 29 20.5H11C10.7239 20.5 10.5 20.2761 10.5 20Z" fill="white"/>
<path fill-rule="evenodd" clip-rule="evenodd" d="M10.5 14C10.5 13.7239 10.7239 13.5 11 13.5H29C29.2761 13.5 29.5 13.7239 29.5 14C29.5 14.2761 29.2761 14.5 29 14.5H11C10.7239 14.5 10.5 14.2761 10.5 14Z" fill="white"/>
<path fill-rule="evenodd" clip-rule="evenodd" d="M10.5 26C10.5 25.7239 10.7239 25.5 11 25.5H29C29.2761 25.5 29.5 25.7239 29.5 26C29.5 26.2761 29.2761 26.5 29 26.5H11C10.7239 26.5 10.5 26.2761 10.5 26Z" fill="white"/>
<path d="M64.8731 24.44C64.9051 24.4827 64.9211 24.5413 64.9211 24.616C64.9211 24.7227 64.8837 24.8133 64.8091 24.888C64.7451 24.9627 64.6597 25 64.5531 25H63.6411C63.5344 25 63.4491 24.9787 63.3851 24.936C63.3317 24.8933 63.2784 24.8347 63.2251 24.76L60.1531 20.04H58.2491V24.632C58.2491 24.7387 58.2117 24.8293 58.1371 24.904C58.0624 24.968 57.9717 25 57.8651 25H57.0491C56.9424 25 56.8517 24.968 56.7771 24.904C56.7131 24.8293 56.6811 24.7387 56.6811 24.632V14.184C56.6811 14.0667 56.7131 13.976 56.7771 13.912C56.8517 13.8373 56.9424 13.8 57.0491 13.8H57.8651C57.9824 13.8 58.0731 13.8373 58.1371 13.912C58.2117 13.976 58.2491 14.0667 58.2491 14.184V18.6L60.0731 18.616L62.9051 14.056C63.0117 13.8853 63.1931 13.8 63.4491 13.8H64.3131C64.5371 13.8 64.6491 13.9067 64.6491 14.12C64.6491 14.1733 64.6224 14.2427 64.5691 14.328L61.4971 19.224L64.8731 24.44ZM69.0274 25.16C68.5048 25.16 68.0194 25.0533 67.5714 24.84C67.1234 24.6267 66.7661 24.3387 66.4994 23.976C66.2434 23.6027 66.1154 23.192 66.1154 22.744C66.1154 22.04 66.4034 21.464 66.9794 21.016C67.5661 20.5573 68.3554 20.2587 69.3474 20.12L71.7314 19.784V19.32C71.7314 18.232 71.1074 17.688 69.8594 17.688C69.3901 17.688 69.0061 17.7893 68.7074 17.992C68.4088 18.184 68.1848 18.4133 68.0354 18.68C68.0034 18.776 67.9608 18.8453 67.9074 18.888C67.8648 18.9307 67.8008 18.952 67.7154 18.952H67.0274C66.9314 18.952 66.8461 18.92 66.7714 18.856C66.7074 18.7813 66.6754 18.696 66.6754 18.6C66.6861 18.344 66.8034 18.056 67.0274 17.736C67.2621 17.4053 67.6194 17.1227 68.0994 16.888C68.5794 16.6427 69.1714 16.52 69.8754 16.52C71.0701 16.52 71.9288 16.8027 72.4514 17.368C72.9741 17.9227 73.2354 18.616 73.2354 19.448V24.632C73.2354 24.7387 73.1981 24.8293 73.1234 24.904C73.0594 24.968 72.9741 25 72.8674 25H72.1314C72.0248 25 71.9341 24.968 71.8594 24.904C71.7954 24.8293 71.7634 24.7387 71.7634 24.632V23.944C71.5288 24.2853 71.1874 24.5733 70.7394 24.808C70.2914 25.0427 69.7208 25.16 69.0274 25.16ZM69.3634 23.96C70.0568 23.96 70.6221 23.736 71.0594 23.288C71.5074 22.8293 71.7314 22.1733 71.7314 21.32V20.872L69.8754 21.144C69.1181 21.2507 68.5474 21.432 68.1634 21.688C67.7794 21.9333 67.5874 22.248 67.5874 22.632C67.5874 23.0587 67.7634 23.3893 68.1154 23.624C68.4674 23.848 68.8834 23.96 69.3634 23.96ZM78.0796 25C77.9729 25 77.8822 24.968 77.8076 24.904C77.7436 24.8293 77.7116 24.7387 77.7116 24.632V17.96H74.9276C74.8209 17.96 74.7302 17.928 74.6556 17.864C74.5916 17.7893 74.5596 17.6987 74.5596 17.592V17.048C74.5596 16.9413 74.5916 16.856 74.6556 16.792C74.7302 16.7173 74.8209 16.68 74.9276 16.68H81.9676C82.0742 16.68 82.1596 16.7173 82.2236 16.792C82.2982 16.856 82.3356 16.9413 82.3356 17.048V17.592C82.3356 17.6987 82.2982 17.7893 82.2236 17.864C82.1596 17.928 82.0742 17.96 81.9676 17.96H79.1836V24.632C79.1836 24.7387 79.1516 24.8293 79.0876 24.904C79.0236 24.968 78.9382 25 78.8316 25H78.0796ZM86.0431 25.16C85.5204 25.16 85.0351 25.0533 84.5871 24.84C84.1391 24.6267 83.7817 24.3387 83.5151 23.976C83.2591 23.6027 83.1311 23.192 83.1311 22.744C83.1311 22.04 83.4191 21.464 83.9951 21.016C84.5817 20.5573 85.3711 20.2587 86.3631 20.12L88.7471 19.784V19.32C88.7471 18.232 88.1231 17.688 86.8751 17.688C86.4057 17.688 86.0217 17.7893 85.7231 17.992C85.4244 18.184 85.2004 18.4133 85.0511 18.68C85.0191 18.776 84.9764 18.8453 84.9231 18.888C84.8804 18.9307 84.8164 18.952 84.7311 18.952H84.0431C83.9471 18.952 83.8617 18.92 83.7871 18.856C83.7231 18.7813 83.6911 18.696 83.6911 18.6C83.7017 18.344 83.8191 18.056 84.0431 17.736C84.2777 17.4053 84.6351 17.1227 85.1151 16.888C85.5951 16.6427 86.1871 16.52 86.8911 16.52C88.0857 16.52 88.9444 16.8027 89.4671 17.368C89.9897 17.9227 90.2511 18.616 90.2511 19.448V24.632C90.2511 24.7387 90.2137 24.8293 90.1391 24.904C90.0751 24.968 89.9897 25 89.8831 25H89.1471C89.0404 25 88.9497 24.968 88.8751 24.904C88.8111 24.8293 88.7791 24.7387 88.7791 24.632V23.944C88.5444 24.2853 88.2031 24.5733 87.7551 24.808C87.3071 25.0427 86.7364 25.16 86.0431 25.16ZM86.3791 23.96C87.0724 23.96 87.6377 23.736 88.0751 23.288C88.5231 22.8293 88.7471 22.1733 88.7471 21.32V20.872L86.8911 21.144C86.1337 21.2507 85.5631 21.432 85.1791 21.688C84.7951 21.9333 84.6031 22.248 84.6031 22.632C84.6031 23.0587 84.7791 23.3893 85.1311 23.624C85.4831 23.848 85.8991 23.96 86.3791 23.96ZM92.1512 25C92.0445 25 91.9539 24.9627 91.8792 24.888C91.8045 24.8133 91.7672 24.7227 91.7672 24.616V24.024C91.7672 23.9173 91.7992 23.832 91.8632 23.768C91.9272 23.704 92.0072 23.672 92.1032 23.672C92.6152 23.6507 92.9939 23.288 93.2392 22.584C93.4952 21.8693 93.6232 20.7067 93.6232 19.096V17.048C93.6232 16.9413 93.6552 16.856 93.7192 16.792C93.7939 16.7173 93.8845 16.68 93.9912 16.68H99.0792C99.1859 16.68 99.2712 16.7173 99.3352 16.792C99.4099 16.856 99.4472 16.9413 99.4472 17.048V24.632C99.4472 24.7387 99.4099 24.8293 99.3352 24.904C99.2712 24.968 99.1859 25 99.0792 25H98.3112C98.2045 25 98.1192 24.968 98.0552 24.904C97.9912 24.8293 97.9592 24.7387 97.9592 24.632V17.96H95.0792V19.272C95.0792 21.3093 94.8445 22.776 94.3752 23.672C93.9059 24.5573 93.1645 25 92.1512 25ZM105.24 25.16C104.067 25.16 103.155 24.8293 102.504 24.168C101.864 23.5067 101.523 22.6267 101.48 21.528L101.464 20.84L101.48 20.152C101.523 19.064 101.87 18.1893 102.52 17.528C103.171 16.856 104.078 16.52 105.24 16.52C106.403 16.52 107.31 16.856 107.96 17.528C108.611 18.1893 108.958 19.064 109 20.152C109.011 20.2693 109.016 20.4987 109.016 20.84C109.016 21.1813 109.011 21.4107 109 21.528C108.958 22.6267 108.611 23.5067 107.96 24.168C107.32 24.8293 106.414 25.16 105.24 25.16ZM105.24 23.928C105.912 23.928 106.44 23.7147 106.824 23.288C107.219 22.8613 107.432 22.248 107.464 21.448C107.475 21.3413 107.48 21.1387 107.48 20.84C107.48 20.5413 107.475 20.3387 107.464 20.232C107.432 19.432 107.219 18.8187 106.824 18.392C106.44 17.9653 105.912 17.752 105.24 17.752C104.568 17.752 104.035 17.9653 103.64 18.392C103.246 18.8187 103.038 19.432 103.016 20.232L103 20.84L103.016 21.448C103.038 22.248 103.246 22.8613 103.64 23.288C104.035 23.7147 104.568 23.928 105.24 23.928ZM111.388 25C111.281 25 111.191 24.968 111.116 24.904C111.052 24.8293 111.02 24.7387 111.02 24.632V17.048C111.02 16.9413 111.052 16.856 111.116 16.792C111.191 16.7173 111.281 16.68 111.388 16.68H116.172C116.279 16.68 116.364 16.7173 116.428 16.792C116.503 16.856 116.54 16.9413 116.54 17.048V17.592C116.54 17.6987 116.503 17.7893 116.428 17.864C116.364 17.928 116.279 17.96 116.172 17.96H112.524V24.632C112.524 24.7387 112.487 24.8293 112.412 24.904C112.348 24.968 112.263 25 112.156 25H111.388Z" fill="white"/>
</svg>
