<svg viewBox="0 0 24 24" xmlns="http://www.w3.org/2000/svg" xmlns:xlink="http://www.w3.org/1999/xlink" width="24.000000" height="24.000000" fill="none" customFrame="#000000">
	<rect id="feather-icon / x" width="24.000000" height="24.000000" x="0.000000" y="0.000000" fill="rgb(255,255,255)" fill-opacity="0" />
	<path id="Shape (Stroke)" d="M18.3536 5.64645C18.5488 5.84171 18.5488 6.15829 18.3536 6.35355L6.35355 18.3536C6.15829 18.5488 5.84171 18.5488 5.64645 18.3536C5.45118 18.1583 5.45118 17.8417 5.64645 17.6464L17.6464 5.64645C17.8417 5.45118 18.1583 5.45118 18.3536 5.64645Z" fill="rgb(64.8125,64.8125,64.8125)" fill-rule="evenodd" />
	<path id="Shape (Stroke)" d="M5.64645 5.64645C5.84171 5.45118 6.15829 5.45118 6.35355 5.64645L18.3536 17.6464C18.5488 17.8417 18.5488 18.1583 18.3536 18.3536C18.1583 18.5488 17.8417 18.5488 17.6464 18.3536L5.64645 6.35355C5.45118 6.15829 5.45118 5.84171 5.64645 5.64645Z" fill="rgb(64.8125,64.8125,64.8125)" fill-rule="evenodd" />
</svg>
